<?xml version="1.0" encoding="utf-8"?>
<!-- Generator: Adobe Illustrator 27.5.0, SVG Export Plug-In . SVG Version: 6.00 Build 0)  -->
<svg version="1.1" xmlns="http://www.w3.org/2000/svg" xmlns:xlink="http://www.w3.org/1999/xlink" x="0px" y="0px"
	 viewBox="0 0 500 500" style="enable-background:new 0 0 500 500;" xml:space="preserve">
<g id="BACKGROUND">
	<path style="fill-rule:evenodd;clip-rule:evenodd;fill:#FFFFFF;" d="M1.462,0h497.077C499.343,0,500,0.658,500,1.461v497.077
		c0,0.804-0.657,1.462-1.461,1.462H1.462C0.658,500,0,499.342,0,498.538V1.461C0,0.658,0.658,0,1.462,0z"/>
</g>
<g id="OBJECTS">
	<g>
		<g>
			<g>
				<path style="fill-rule:evenodd;clip-rule:evenodd;fill:#26303A;" d="M303.606,446.16c0.038-0.042,0.071-0.088,0.104-0.134
					c0.01-0.016,0.02-0.03,0.029-0.046c0.029-0.047,0.056-0.095,0.078-0.146c0.007-0.015,0.013-0.029,0.019-0.044
					c0.02-0.05,0.039-0.101,0.053-0.154c0.002-0.007,0.005-0.013,0.006-0.02c0.016-0.061,0.024-0.122,0.031-0.185
					c0.001-0.011,0.003-0.021,0.003-0.032c0.005-0.063,0.006-0.127,0.001-0.191c-0.001-0.004,0-0.008,0-0.012
					c-0.001-0.006-0.003-0.012-0.003-0.019c-0.007-0.062-0.016-0.124-0.031-0.187c0-0.003-0.001-0.007-0.002-0.011v-0.001
					c-0.016-0.06-0.036-0.117-0.06-0.173c-0.006-0.014-0.012-0.028-0.018-0.042c-0.024-0.054-0.052-0.105-0.083-0.155
					c-0.007-0.011-0.015-0.021-0.022-0.031c-0.029-0.043-0.06-0.084-0.095-0.123c-0.008-0.01-0.015-0.02-0.023-0.028
					c-0.038-0.042-0.08-0.08-0.123-0.116c-0.014-0.012-0.027-0.022-0.041-0.033c-0.045-0.034-0.091-0.066-0.14-0.095
					c-0.013-0.007-0.025-0.013-0.037-0.02c-0.05-0.026-0.101-0.05-0.153-0.07c-0.006-0.002-0.012-0.005-0.018-0.008
					c-0.061-0.021-0.124-0.038-0.188-0.051c-0.006-0.001-0.011-0.004-0.017-0.005c-2.938-0.544-5.631-1.127-8.048-1.849
					c-1.813-0.542-3.47-1.161-4.962-1.897c-2.239-1.105-4.104-2.462-5.626-4.233c-1.52-1.773-2.711-3.971-3.542-6.824
					c-0.189-0.651-0.846-1.044-1.51-0.903c-1.095,0.233-2.326,0.354-3.621,0.354c-2.95,0.002-6.226-0.63-9.016-1.859
					c-1.396-0.614-2.67-1.374-3.731-2.261c-1.064-0.888-1.913-1.897-2.491-3.021c-0.325-0.631-1.098-0.881-1.732-0.561
					c-2.452,1.239-5.104,1.955-7.796,1.955c-1.815-0.001-3.652-0.324-5.485-1.042c-1.832-0.719-3.663-1.834-5.453-3.439
					c-0.441-0.396-1.097-0.441-1.588-0.108c-2.137,1.448-4.09,2.508-5.956,3.202c-1.868,0.694-3.646,1.03-5.492,1.031
					c-1.492,0-3.033-0.222-4.697-0.679c-1.611-0.442-3.336-1.109-5.221-2.003c-1.612-1.589-2.94-3.007-3.968-4.16
					c-0.874-0.98-1.533-1.77-1.971-2.311c-0.219-0.271-0.383-0.478-0.491-0.617c-0.054-0.069-0.094-0.122-0.12-0.156
					c-0.013-0.017-0.022-0.029-0.028-0.037l-0.006-0.008l-0.001-0.001v-0.001c-0.426-0.572-1.235-0.69-1.808-0.265
					c-0.572,0.426-0.691,1.235-0.266,1.808c0.033,0.043,2.446,3.284,7.051,7.793c2.862,2.99,5.065,6.232,6.562,9.773
					c1.507,3.569,2.301,7.445,2.302,11.707c0,1.539-0.104,3.127-0.316,4.769c-0.046,0.356,0.059,0.72,0.29,0.996
					c0.231,0.275,0.57,0.444,0.93,0.461c2.345,0.11,4.585,0.396,6.69,0.91c3.16,0.773,6.008,2.057,8.503,4.058
					c2.494,2.003,4.653,4.734,6.386,8.487c0.166,0.36,0.488,0.624,0.874,0.716c0.386,0.092,0.792,0.001,1.103-0.245
					c1.653-1.313,3.393-2.252,5.231-2.87c1.837-0.617,3.776-0.912,5.828-0.913c3.779-0.001,7.946,1.016,12.412,2.892
					c0.485,0.205,1.051,0.091,1.421-0.284c3.451-3.505,7.901-6.43,12.965-8.995c5.063-2.567,10.731-4.775,16.593-6.879
					c0.001,0,0.002-0.001,0.003-0.002c0.061-0.021,0.12-0.049,0.177-0.08c0.01-0.005,0.021-0.011,0.03-0.017
					c0.053-0.031,0.104-0.064,0.151-0.102c0.01-0.008,0.02-0.017,0.028-0.024c0.042-0.035,0.081-0.071,0.118-0.111
					C303.593,446.175,303.601,446.168,303.606,446.16L303.606,446.16z M293.142,444.363L293.142,444.363
					c1.103,0.355,2.252,0.676,3.44,0.972c-3.419,0.657-6.749,1.103-9.986,1.356c0.691-0.712,1.21-1.585,1.098-2.613
					c-0.036-0.332-0.497-0.432-0.602-0.082c-0.38,1.27-1.106,2.083-2.209,2.791c-0.012,0.008-0.025,0.015-0.037,0.022
					c-1.684,0.099-3.342,0.147-4.975,0.147c-0.172,0-0.343-0.002-0.514-0.003c0.767-0.359,1.498-0.785,2.19-1.287
					c0.96-0.698,1.783-1.527,2.499-2.471c0.486-0.642,1.163-1.686,1.315-2.621c0.08,0.06,0.158,0.12,0.239,0.178
					C287.798,442.315,290.331,443.455,293.142,444.363L293.142,444.363z M281.702,437.025L281.702,437.025
					c0.828,1.071,1.758,2.02,2.773,2.86c-0.197,0.299-0.288,0.644-0.447,0.986c-0.243,0.527-0.557,1.031-0.882,1.512
					c-0.682,1.004-1.627,1.836-2.615,2.526c-0.882,0.614-1.838,1.137-2.813,1.585c-0.303,0.139-0.714,0.256-1.122,0.398
					c-0.468-0.019-0.933-0.041-1.396-0.066c0.462-0.45,0.85-0.982,1.201-1.519c0.384-0.585,0.92-1.354,0.851-2.081
					c-0.029-0.311-0.359-0.579-0.664-0.381c-0.508,0.329-0.732,0.887-1.04,1.392c-0.354,0.579-0.778,1.096-1.253,1.579
					c-0.338,0.345-0.721,0.628-1.13,0.871c-1.521-0.123-3.018-0.285-4.488-0.485c1.991-1.24,3.688-2.943,5.174-4.742
					c2.138-2.588,4.243-5.788,5.182-9.151C279.752,434.093,280.644,435.657,281.702,437.025L281.702,437.025z M268.123,449.651
					L268.123,449.651c0.896,0.979,1.546,2.177,2.086,3.38c0.56,1.249,0.939,2.585,1.212,3.923c0.122,0.601,0.203,1.207,0.259,1.816
					c0.028,0.315,0.017,0.639,0.02,0.96c-4.09-1.581-8.023-2.487-11.768-2.526c-0.033-0.561-0.097-1.12-0.135-1.641
					c-0.114-1.548-0.306-3.093-0.61-4.614c-0.244-1.215-0.746-3.063-1.664-4.373c0.866,0.234,1.743,0.457,2.63,0.667
					c0.484,0.672,1.417,1.221,1.877,1.751c1.119,1.291,1.842,3.153,2.282,4.782c0.103,0.38,0.73,0.313,0.699-0.095
					c-0.126-1.727-0.67-3.176-1.565-4.664c-0.258-0.429-0.563-0.841-0.879-1.24c0.201,0.042,0.403,0.082,0.605,0.123
					c0.071,0.019,0.146,0.032,0.22,0.043c1.186,0.232,2.389,0.442,3.607,0.628C267.406,448.894,267.777,449.272,268.123,449.651
					L268.123,449.651z M278.234,431.102L278.234,431.102c-1.343,3.243-3.123,6.344-5.302,9.09c-1.348,1.699-2.898,3.277-4.691,4.507
					c-0.641,0.439-1.322,0.824-2.037,1.13c-0.547-0.091-1.09-0.188-1.63-0.289c0.114-0.102,0.224-0.199,0.324-0.292
					c1.327-1.215,2.291-2.777,2.73-4.523c0.059-0.235-0.275-0.319-0.357-0.099c-0.543,1.466-1.812,2.65-2.974,3.648
					c-0.409,0.352-0.856,0.666-1.32,0.95c-2.24-0.466-4.418-1.015-6.528-1.635c2.585-0.657,5.02-2.623,6.723-4.414
					c2.335-2.455,4.374-5.609,5.322-8.924c2.336,0.671,4.769,1.01,7.074,1.011C276.481,431.262,277.374,431.209,278.234,431.102
					L278.234,431.102z M261.165,426.542L261.165,426.542c1.784,1.487,3.947,2.594,6.241,3.369c-0.809,3.105-2.791,5.869-5,8.135
					c-2.355,2.414-5.029,4.085-8.276,4.826c-1.197-0.39-2.373-0.8-3.525-1.23c0.716-0.298,1.425-0.604,2.101-0.99
					c0.771-0.439,1.49-0.964,2.18-1.522c0.363-0.295,0.708-0.613,1.028-0.955c0.299-0.319,0.393-0.749,0.592-1.128
					c0.118-0.227-0.138-0.554-0.38-0.38c-0.585,0.421-1.144,0.737-1.692,1.223c-0.655,0.58-1.385,1.067-2.136,1.513
					c-0.751,0.446-1.545,0.867-2.355,1.191c-0.354,0.142-0.73,0.228-1.055,0.386c-1.803-0.717-3.55-1.48-5.237-2.279
					c3.672-0.523,6.808-2.807,9.453-5.366c1.54-1.489,2.901-3.169,4.085-4.952c0.563-0.848,1.064-1.736,1.513-2.648
					c0.162-0.328,0.396-0.73,0.55-1.143C259.816,425.301,260.46,425.953,261.165,426.542L261.165,426.542z M258.33,423.942
					L258.33,423.942c-0.217,0.416-0.356,0.917-0.523,1.268c-0.397,0.84-0.865,1.646-1.358,2.433
					c-1.091,1.741-2.402,3.337-3.84,4.802c-2.561,2.61-5.894,4.966-9.47,6.008c-0.481-0.231-0.957-0.466-1.428-0.703
					c0.377-0.108,0.741-0.256,1.061-0.394c0.688-0.295,1.29-0.757,1.867-1.225c0.575-0.467,0.846-1.071,1.285-1.643
					c0.198-0.258-0.208-0.516-0.425-0.327c-0.397,0.343-0.903,0.569-1.344,0.857c-0.503,0.328-0.978,0.664-1.513,0.944
					c-0.937,0.489-1.988,0.401-2.927,0.751c-0.993-0.53-1.962-1.071-2.909-1.621c2.312-0.212,4.507-1.807,6.18-3.263
					c1.117-0.972,2.083-2.114,2.887-3.356c0.452-0.699,1.574-2.444,1.197-3.363c1.249,0.272,2.499,0.402,3.733,0.402
					C253.42,425.514,255.962,424.935,258.33,423.942L258.33,423.942z M246.156,424.886L246.156,424.886
					c-0.297,0.298-0.301,0.638-0.432,1.066c-0.184,0.605-0.485,1.167-0.803,1.711c-0.691,1.181-1.613,2.216-2.58,3.178
					c-1.703,1.694-4.003,3.336-6.447,3.72c-0.637-0.38-1.263-0.763-1.878-1.147c1.364-0.347,2.806-1.582,3.281-2.566
					c0.104-0.216-0.065-0.472-0.314-0.408c-0.839,0.215-1.491,0.692-2.23,1.122c-0.809,0.471-1.707,0.468-2.586,0.666
					c-1.084-0.715-2.132-1.435-3.141-2.155c2.197-0.256,4.359-1.583,6.033-2.842c1.222-0.919,2.332-1.979,3.274-3.185
					c0.391-0.5,1.176-1.451,1.469-2.311c1.488,1.104,3.02,1.953,4.571,2.561C244.966,424.526,245.561,424.722,246.156,424.886
					L246.156,424.886z M226.829,425.158L226.829,425.158c2.165,0,4.276-0.404,6.394-1.193c1.738-0.648,3.484-1.555,5.301-2.701
					c-0.049,0.115-0.097,0.233-0.153,0.349c-0.251,0.519-0.574,1.001-0.911,1.468c-0.821,1.139-1.881,2.117-2.973,2.99
					c-1.943,1.553-4.276,2.696-6.746,3.065c-2.117-1.564-4.053-3.121-5.799-4.621C223.616,424.938,225.235,425.158,226.829,425.158
					L226.829,425.158z M223.563,429.195L223.563,429.195c1.074,0.849,2.202,1.705,3.384,2.563l0.001,0.001
					c0.335,0.737,0.605,1.512,0.839,2.285c0.505,1.662,0.786,3.399,0.847,5.133c0.059,1.682-0.119,3.376-0.658,4.975
					c-0.247,0.73-0.618,1.41-1.065,2.036c-0.086,0.12-0.183,0.228-0.284,0.33c0.085-1.051,0.127-2.085,0.127-3.102
					c0.001-4.584-0.862-8.824-2.505-12.713C224.033,430.194,223.804,429.692,223.563,429.195L223.563,429.195z M227.977,447.277
					L227.977,447.277c0.483-0.604,0.863-1.282,1.167-1.993c0.761-1.782,1.01-3.745,0.96-5.672c-0.051-1.936-0.414-3.874-1.042-5.704
					c-0.095-0.276-0.198-0.572-0.314-0.875c0.941,0.651,1.91,1.301,2.912,1.944c0.087,0.403,0.271,0.795,0.413,1.199
					c0.277,0.791,0.465,1.631,0.574,2.462c0.094,0.713,0.165,1.438,0.169,2.157c0.005,0.851-0.106,1.702,0.089,2.538
					c0.097,0.416,0.639,0.341,0.769,0c0.307-0.802,0.307-1.69,0.359-2.538c0.05-0.814,0.098-1.605,0.029-2.42
					c-0.063-0.732-0.209-1.447-0.411-2.152c0.642,0.392,1.294,0.78,1.958,1.165c0.362,0.751,0.668,1.529,0.879,2.391
					c0.313,1.281,0.407,2.637,0.47,3.953c0.061,1.267,0.095,2.556-0.136,3.808c-0.096,0.523-0.252,1.027-0.52,1.488
					c-0.047,0.082-0.108,0.152-0.172,0.218c-0.128-0.052-0.256-0.104-0.385-0.154C233.293,448.146,230.688,447.577,227.977,447.277
					L227.977,447.277z M244.569,455.141L244.569,455.141c-2.048-2.287-4.399-3.999-6.955-5.238c0.218-0.354,0.387-0.729,0.499-1.035
					c0.52-1.421,0.499-3.072,0.433-4.561c-0.069-1.543-0.344-3.1-0.789-4.574c-0.136-0.45-0.291-0.924-0.475-1.396
					c0.588,0.325,1.188,0.646,1.793,0.964c0.22,0.877,0.857,1.69,1.276,2.482c0.793,1.501,0.716,3.128,0.981,4.757
					c0.014,0.088,0.159,0.107,0.195,0.025c0.604-1.373,0.714-3.094,0.253-4.521c-0.197-0.61-0.493-1.191-0.787-1.764
					c0.48,0.238,0.965,0.474,1.455,0.706c0.804,1.416,1.582,2.846,2.218,4.35c0.856,2.024,1.679,4.075,2.414,6.146
					c0.631,1.78,1.121,3.639,1.33,5.518c0.099,0.89,0.124,1.809-0.006,2.696c-0.037,0.252-0.111,0.497-0.192,0.739
					C247.14,458.409,245.921,456.649,244.569,455.141L244.569,455.141z M253.036,458.248L253.036,458.248
					c-1.101,0.369-2.174,0.844-3.213,1.42c0.069-0.814,0.022-1.634-0.012-2.167c-0.131-2.034-0.655-4.047-1.298-5.974
					c-0.713-2.134-1.584-4.24-2.465-6.311c-0.495-1.161-1.057-2.313-1.744-3.373c1.635,0.733,3.321,1.434,5.059,2.091
					c0.547,0.968,1.499,1.713,2.081,2.654c0.93,1.502,0.593,3.335,1.181,4.916c0.197,0.529,0.939,0.442,0.98-0.133
					c0.105-1.511-0.191-3.55-0.791-4.946c-0.221-0.516-0.51-1.035-0.828-1.545c1.297,0.444,2.62,0.863,3.969,1.255
					c1.477,1.335,1.768,3.652,2.073,5.562c0.214,1.34,0.308,2.699,0.365,4.054c0.02,0.481,0.005,0.985,0.001,1.489
					C256.55,457.344,254.758,457.669,253.036,458.248L253.036,458.248z M272.951,459.353L272.951,459.353
					c-0.044-0.917-0.288-1.904-0.455-2.694c-0.317-1.509-0.837-2.972-1.493-4.364c-0.599-1.27-1.383-2.458-2.35-3.478
					c-0.003-0.003-0.007-0.007-0.01-0.01c0.702,0.093,1.41,0.176,2.124,0.252c0.007,0.011,0.012,0.022,0.021,0.032
					c0.551,0.696,1.18,1.317,1.703,2.038c0.516,0.709,0.914,1.426,1.574,2.016c0.062,0.055,0.174,0.021,0.171-0.071
					c-0.046-1.267-0.648-2.67-1.433-3.822c0.845,0.069,1.696,0.127,2.556,0.172c0.212,0.369,0.512,0.675,0.793,0.997
					c0.451,0.519,0.803,1.123,1.121,1.73c0.32,0.611,0.559,1.259,0.757,1.918c0.109,0.362,0.157,0.749,0.23,1.125
					C276.355,456.477,274.575,457.855,272.951,459.353L272.951,459.353z M285.317,451.091L285.317,451.091
					c-2.04,1.034-3.996,2.133-5.848,3.311c-0.196-0.929-0.619-1.865-0.996-2.63c-0.349-0.708-0.868-1.62-1.528-2.28
					c0.755,0.025,1.516,0.041,2.282,0.047c0.012,0.035,0.026,0.069,0.046,0.104c0.178,0.303,0.658,0.423,0.937,0.623
					c0.497,0.359,0.879,0.877,1.409,1.199c0.056,0.034,0.145,0.005,0.157-0.064c0.108-0.571-0.143-1.121-0.484-1.558
					c-0.07-0.09-0.165-0.198-0.274-0.31c2.843-0.037,5.759-0.214,8.744-0.548C288.245,449.66,286.76,450.359,285.317,451.091z"/>
				<path style="fill-rule:evenodd;clip-rule:evenodd;fill:#26303A;" d="M271.169,439.233c0.923-0.158,1.523-1.329,1.972-2.057
					c0.603-0.979,1.151-1.999,1.732-2.991c0.093-0.158-0.108-0.279-0.235-0.182c-0.802,0.621-1.326,1.486-1.889,2.318
					c-0.331,0.49-0.653,0.976-1.034,1.431c-0.323,0.387-0.692,0.671-0.879,1.147C270.753,439.112,270.989,439.265,271.169,439.233z"
					/>
				<path style="fill-rule:evenodd;clip-rule:evenodd;fill:#26303A;" d="M258.697,438.042c2.163-0.179,3.926-2.517,4.73-4.353
					c0.053-0.121-0.105-0.279-0.202-0.155c-0.638,0.816-1.417,1.561-2.249,2.178c-0.834,0.617-1.769,1.077-2.48,1.845
					C258.34,437.724,258.435,438.064,258.697,438.042z"/>
				<path style="fill-rule:evenodd;clip-rule:evenodd;fill:#26303A;" d="M248.522,430.407c0.649,0.236,1.15-0.509,1.437-0.974
					c0.329-0.532,0.418-1.277,0.449-1.889c0.011-0.215-0.314-0.307-0.412-0.111c-0.243,0.485-0.519,0.943-0.878,1.352
					c-0.311,0.353-0.869,0.799-0.832,1.313C248.297,430.251,248.379,430.354,248.522,430.407z"/>
				<path style="fill-rule:evenodd;clip-rule:evenodd;fill:#26303A;" d="M239.278,425.267c-0.315,0.37-0.741,0.631-1.135,0.91
					c-0.38,0.271-0.876,0.483-0.912,1.004c-0.008,0.128,0.101,0.28,0.23,0.302c0.504,0.085,0.861-0.306,1.23-0.596
					c0.444-0.351,0.779-0.764,1.058-1.257C239.91,425.342,239.505,425.002,239.278,425.267z"/>
				<path style="fill-rule:evenodd;clip-rule:evenodd;fill:#26303A;" d="M246.804,453.971c-0.172-0.549-0.399-1.044-0.677-1.548
					c-0.048-0.089-0.175-0.025-0.156,0.066c0.11,0.541,0.209,1.081,0.329,1.621c0.108,0.488,0.144,1.08,0.445,1.488
					c0.086,0.116,0.304,0.13,0.339-0.044C247.188,455.029,246.962,454.471,246.804,453.971z"/>
				<path style="fill-rule:evenodd;clip-rule:evenodd;fill:#26303A;" d="M256.9,453.674c-0.011-0.035-0.063-0.021-0.055,0.016
					c0.136,0.585,0.167,1.086,0.072,1.678c-0.059,0.373-0.148,0.739,0.045,1.079c0.065,0.115,0.242,0.115,0.308,0
					c0.218-0.384,0.083-0.839-0.015-1.25C257.137,454.69,257.052,454.173,256.9,453.674z"/>
				<path style="fill-rule:evenodd;clip-rule:evenodd;fill:#26303A;" d="M269.165,455.31c0.202,0.428,0.35,0.863,0.455,1.324
					c0.105,0.462,0.022,0.912,0.148,1.367c0.053,0.189,0.35,0.255,0.442,0.058c0.745-1.584-0.852-3.636-1.413-5.055
					c-0.123-0.311-0.587-0.198-0.509,0.14C268.467,453.914,268.83,454.598,269.165,455.31z"/>
				<path style="fill-rule:evenodd;clip-rule:evenodd;fill:#26303A;" d="M276.153,454.168c-0.002,0.14-0.001,0.278,0.018,0.417
					c0.021,0.169,0.065,0.279,0.189,0.398c0.072,0.068,0.214,0.023,0.207-0.086c-0.016-0.246-0.068-0.48-0.071-0.729
					C276.492,453.947,276.155,453.947,276.153,454.168z"/>
			</g>
			<path style="fill-rule:evenodd;clip-rule:evenodd;fill:#26303A;" d="M259.203,458.99c-0.215,0.1-0.452,0.16-0.702,0.175
				c-1.651,0.093-3.282,0.384-4.851,0.91c-1.002,0.337-1.968,0.767-2.892,1.279c-0.321,0.178-0.665,0.261-1.006,0.248
				c-0.321,0.431-0.81,0.705-1.377,0.753c-0.787,0.066-1.497-0.32-1.866-1.019c-0.932-1.76-2.045-3.425-3.375-4.909
				c-1.803-2.012-3.931-3.612-6.361-4.791c-0.242-0.117-0.446-0.27-0.611-0.458c-0.25,0.002-0.505-0.046-0.753-0.146
				c-2.447-0.99-5.024-1.55-7.643-1.84c-0.55-0.062-1.017-0.33-1.33-0.753c-0.206-0.021-0.413-0.078-0.612-0.169
				c-0.751-0.345-1.187-1.086-1.12-1.909c0.46-5.684-0.377-11.183-2.876-16.324c-0.397-0.818-0.183-1.774,0.526-2.345
				c0.066-0.054,0.135-0.102,0.206-0.145c-0.63-0.516-1.255-1.039-1.874-1.569c-0.687-0.591-0.873-1.547-0.456-2.351
				c0.417-0.804,1.306-1.203,2.184-0.982c1.446,0.365,2.923,0.584,4.415,0.584c3.94,0.002,7.384-1.525,10.665-3.596
				c0.724-0.457,1.622-0.395,2.275,0.157c0.004,0.003,0.007,0.007,0.011,0.01c0.417-0.01,0.818,0.12,1.174,0.385
				c1.732,1.286,3.632,2.269,5.715,2.842c0.14,0.038,0.271,0.09,0.393,0.153c0.138,0.001,0.278,0.017,0.419,0.047
				c3.428,0.748,6.887,0.286,10.104-1.063c0.764-0.319,1.604-0.136,2.165,0.474c0.033,0.036,0.065,0.072,0.095,0.11
				c0.353,0.112,0.668,0.33,0.916,0.642c0.486,0.612,1.039,1.171,1.64,1.671c1.637,1.365,3.613,2.344,5.624,3.025
				c0.174,0.059,0.333,0.14,0.478,0.238c0.174,0,0.351,0.024,0.525,0.075c2.84,0.815,6.03,1.157,8.969,0.79
				c0.7-0.088,1.345,0.183,1.772,0.744c0.184,0.241,0.306,0.508,0.363,0.784c0.301,0.208,0.542,0.506,0.689,0.871
				c0.613,1.521,1.402,2.959,2.406,4.258c0.729,0.942,1.56,1.796,2.478,2.556c0.133,0.11,0.247,0.234,0.343,0.368
				c0.157,0.062,0.31,0.146,0.454,0.251c2.186,1.603,4.663,2.679,7.232,3.508c1.092,0.353,2.2,0.658,3.313,0.936
				c0.889,0.222,1.486,1.008,1.462,1.923c-0.024,0.915-0.665,1.669-1.564,1.842c-1.811,0.348-3.634,0.645-5.463,0.886
				c0.058,0.115,0.104,0.237,0.14,0.365c0.251,0.925-0.201,1.877-1.077,2.267c-1.468,0.654-2.923,1.338-4.356,2.064
				c-1.942,0.985-3.848,2.049-5.685,3.218c-0.21,0.133-0.431,0.224-0.658,0.27c-0.134,0.189-0.304,0.356-0.509,0.494
				c-1.784,1.202-3.497,2.518-5.08,3.978c-0.4,0.369-0.902,0.545-1.414,0.513c-0.016,0.012-0.032,0.023-0.049,0.034
				c-0.542,0.375-1.178,0.45-1.791,0.213c-3.517-1.359-7.304-2.357-11.094-2.397C259.66,459.129,259.422,459.079,259.203,458.99z"/>
			<g>
				<path style="fill-rule:evenodd;clip-rule:evenodd;fill:#26303A;" d="M227.131,256.528c0.001-0.007,0.004-0.013,0.006-0.018
					c0.001-0.004,0.001-0.009,0.002-0.013c0.014-0.062,0.022-0.123,0.027-0.186c0.001-0.011,0.001-0.021,0.002-0.033
					c0.002-0.061,0.002-0.123-0.004-0.184c-0.001-0.006-0.002-0.013-0.003-0.02c-0.006-0.054-0.017-0.106-0.029-0.159
					c-0.004-0.015-0.007-0.029-0.011-0.044c-0.015-0.053-0.034-0.104-0.055-0.155c-0.007-0.016-0.014-0.031-0.022-0.047
					c-0.024-0.051-0.051-0.1-0.082-0.147c-0.005-0.008-0.012-0.016-0.017-0.023c-0.03-0.044-0.063-0.086-0.099-0.126
					c-0.008-0.009-0.016-0.019-0.024-0.027c-0.041-0.043-0.086-0.084-0.133-0.121c-0.009-0.008-0.018-0.015-0.027-0.021
					c-0.05-0.038-0.104-0.073-0.161-0.104c-0.001-0.001-0.001-0.002-0.003-0.002c-2.035-1.092-3.977-2.205-5.657-3.399
					c-1.682-1.194-3.095-2.468-4.102-3.854c-0.308-0.423-0.838-0.614-1.346-0.485c-0.997,0.254-1.928,0.403-2.78,0.441
					c-0.854,0.039-1.626-0.033-2.322-0.213c-0.527-0.136-1.011-0.333-1.462-0.599c-0.451-0.267-0.872-0.602-1.268-1.024
					c-0.268-0.286-0.65-0.433-1.04-0.398c-0.391,0.033-0.743,0.243-0.957,0.57c-0.525,0.801-1.082,1.419-1.663,1.9
					c-0.873,0.721-1.806,1.147-2.849,1.383c-1.041,0.232-2.196,0.261-3.443,0.135c-0.354-0.035-0.708,0.079-0.974,0.314
					c-0.266,0.235-0.422,0.574-0.429,0.929c-0.021,1.022-0.148,1.961-0.372,2.827c-0.307,1.187-0.792,2.239-1.449,3.195
					c-0.648,0.942-1.467,1.79-2.458,2.56c-0.151,0.109-0.297,0.217-0.438,0.322c-0.291-0.311-0.607-0.6-0.946-0.864
					c-0.261-0.204-0.537-0.393-0.823-0.566c-0.423-1.053-0.688-2.097-0.79-3.139c-0.112-1.155-0.027-2.312,0.279-3.499
					c0.224-0.867,0.567-1.75,1.045-2.655c0.166-0.313,0.193-0.688,0.075-1.022c-0.118-0.335-0.375-0.607-0.701-0.747
					c-0.769-0.328-1.47-0.696-2.088-1.115c-0.927-0.631-1.663-1.363-2.207-2.274c-0.542-0.912-0.906-2.018-1.015-3.452
					c-0.029-0.391-0.236-0.745-0.561-0.964c-0.326-0.218-0.732-0.274-1.105-0.153c-0.551,0.179-1.082,0.269-1.605,0.283
					c-0.524,0.015-1.042-0.047-1.569-0.183c-0.695-0.18-1.406-0.491-2.135-0.938c-0.728-0.446-1.471-1.026-2.22-1.73
					c-0.379-0.355-0.941-0.445-1.411-0.226c-1.552,0.725-3.405,1.153-5.454,1.384c-2.048,0.231-4.288,0.265-6.598,0.237
					c-0.001,0-0.002,0-0.002,0c-0.066-0.001-0.13,0.005-0.193,0.014c-0.011,0.002-0.021,0.003-0.032,0.005
					c-0.06,0.01-0.12,0.024-0.177,0.042c-0.011,0.004-0.021,0.008-0.032,0.012c-0.052,0.019-0.102,0.04-0.151,0.064
					c-0.008,0.004-0.016,0.007-0.023,0.011c-0.05,0.026-0.098,0.058-0.144,0.09c-0.014,0.011-0.027,0.019-0.04,0.03
					c-0.044,0.034-0.085,0.07-0.124,0.109c-0.011,0.011-0.02,0.021-0.031,0.033c-0.038,0.04-0.073,0.082-0.105,0.127
					c-0.003,0.005-0.006,0.009-0.01,0.014c-0.035,0.051-0.066,0.105-0.093,0.161c-0.004,0.01-0.01,0.018-0.014,0.028
					c-0.026,0.057-0.048,0.115-0.065,0.177c-0.001,0.004-0.003,0.007-0.005,0.012c-0.001,0.006-0.002,0.013-0.003,0.019
					c-0.016,0.059-0.028,0.119-0.036,0.182c-0.001,0.004-0.001,0.008-0.001,0.012c-0.007,0.061-0.007,0.121-0.005,0.181
					c0,0.015,0.001,0.03,0.002,0.045c0.004,0.059,0.012,0.116,0.023,0.173c0.002,0.012,0.006,0.022,0.009,0.034
					c0.012,0.052,0.028,0.103,0.046,0.151c0.003,0.01,0.006,0.02,0.01,0.029c0.021,0.053,0.047,0.105,0.076,0.153
					c0.008,0.014,0.016,0.027,0.024,0.041c0.03,0.049,0.063,0.095,0.099,0.139c0.008,0.01,0.017,0.018,0.025,0.028
					c0.038,0.043,0.078,0.084,0.121,0.121c0.004,0.004,0.008,0.008,0.012,0.012c0.049,0.041,0.102,0.078,0.157,0.112
					c0.005,0.003,0.008,0.007,0.013,0.01c0.944,0.564,1.788,1.105,2.503,1.645c0.537,0.405,1.001,0.81,1.388,1.22
					c0.581,0.618,0.988,1.239,1.247,1.941c0.257,0.702,0.374,1.502,0.3,2.513c-0.049,0.667,0.422,1.257,1.084,1.357
					c0.162,0.023,0.335,0.059,0.514,0.104c0.489,0.127,1.025,0.336,1.545,0.611c0.781,0.413,1.523,0.977,2.058,1.59
					c0.268,0.306,0.485,0.621,0.639,0.931c0.155,0.311,0.248,0.61,0.283,0.9c0.084,0.696,0.711,1.193,1.408,1.115
					c0.727-0.081,1.443-0.041,2.112,0.132c0.65,0.169,1.256,0.459,1.813,0.902c0.556,0.444,1.066,1.046,1.499,1.87
					c0.272,0.518,0.861,0.784,1.43,0.647c0.474-0.115,0.906-0.194,1.309-0.247c-0.875,0.359-1.688,0.859-2.399,1.487
					c-1.22,1.076-2.146,2.525-2.583,4.216c-0.292,1.128-0.341,2.269-0.179,3.355c0.243,1.633,0.959,3.148,2.037,4.369
					c1.078,1.22,2.526,2.145,4.217,2.581c1.063,0.274,2.136,0.331,3.167,0.2c0.171,0.241,0.352,0.477,0.548,0.7
					c1.076,1.221,2.523,2.148,4.211,2.584c1.126,0.291,2.264,0.339,3.351,0.176c1.631-0.245,3.146-0.962,4.367-2.039
					c1.22-1.077,2.147-2.524,2.583-4.213c0.291-1.126,0.339-2.264,0.176-3.351c-0.244-1.631-0.959-3.146-2.036-4.366
					c-0.81-0.917-1.828-1.669-3.001-2.17c0.159,0.023,0.314,0.055,0.467,0.095c0.486,0.125,0.959,0.329,1.466,0.637
					c0.505,0.308,1.04,0.723,1.621,1.258c0.43,0.397,1.077,0.449,1.566,0.127c0.778-0.512,1.515-0.792,2.215-0.912
					c0.701-0.118,1.371-0.078,2.02,0.089c0.67,0.173,1.318,0.485,1.917,0.909c0.572,0.405,1.364,0.272,1.773-0.297
					c0.227-0.315,0.555-0.6,0.983-0.839c0.639-0.359,1.494-0.599,2.38-0.681c0.885-0.084,1.799-0.011,2.532,0.18
					c0.182,0.047,0.352,0.101,0.508,0.159c0.627,0.235,1.328-0.053,1.608-0.661c0.376-0.817,0.807-1.416,1.294-1.883
					c0.366-0.351,0.767-0.629,1.225-0.862c0.685-0.349,1.503-0.59,2.472-0.749c0.967-0.161,2.077-0.239,3.314-0.282
					c0.005,0,0.011-0.002,0.016-0.002c0.064-0.003,0.128-0.01,0.191-0.022c0.006-0.001,0.012-0.003,0.019-0.005
					c0.055-0.012,0.108-0.028,0.161-0.047c0.012-0.005,0.025-0.008,0.037-0.013c0.052-0.021,0.103-0.046,0.151-0.073
					c0.015-0.008,0.029-0.017,0.044-0.025c0.048-0.029,0.094-0.06,0.138-0.096c0.01-0.008,0.018-0.017,0.027-0.023
					c0.039-0.033,0.076-0.069,0.11-0.107c0.009-0.009,0.018-0.018,0.026-0.027c0.037-0.043,0.071-0.09,0.103-0.139
					c0.009-0.013,0.017-0.026,0.024-0.04c0.03-0.051,0.059-0.103,0.082-0.159c0,0,0,0,0.001,0c0.002-0.005,0.003-0.011,0.005-0.015
					C227.099,256.644,227.117,256.586,227.131,256.528L227.131,256.528z M181.361,267.621c-0.42-1.107-0.649-2.033-0.631-3.201
					l0.027-0.005c0.294,1.082,0.867,2.222,1.418,3.191c0.4,0.705,1.307,1.542,1.115,2.396c-0.039,0.173-0.253,0.317-0.428,0.253
					C181.966,269.922,181.672,268.44,181.361,267.621L181.361,267.621z M189.296,270.366c-0.42-1.106-0.649-2.032-0.632-3.201
					l0.027-0.004c0.294,1.082,0.867,2.222,1.419,3.191c0.4,0.705,1.307,1.541,1.114,2.396c-0.039,0.172-0.252,0.317-0.428,0.252
					C189.901,272.668,189.607,271.186,189.296,270.366L189.296,270.366z M204.29,250.867L204.29,250.867
					c0.915-0.533,1.764-1.251,2.529-2.156c0.231,0.172,0.47,0.33,0.715,0.475c0.665,0.393,1.377,0.681,2.119,0.872
					c0.981,0.253,2.011,0.339,3.075,0.291c0.805-0.037,1.631-0.149,2.475-0.327c0.771,0.938,1.663,1.793,2.638,2.592
					c-3.427-0.512-6.654-0.445-9.611-0.011c-4.029,0.593-7.557,1.863-10.46,3.277c0.211-0.52,0.39-1.061,0.534-1.618
					c0.173-0.671,0.297-1.366,0.372-2.089c0.513,0.012,1.024-0.001,1.532-0.048C201.617,251.997,203.008,251.614,204.29,250.867
					L204.29,250.867z M174.001,239.104L174.001,239.104c0.653,0.564,1.32,1.061,2.007,1.482c0.907,0.557,1.85,0.98,2.831,1.233
					c0.742,0.192,1.505,0.284,2.277,0.263c0.284-0.008,0.569-0.03,0.854-0.069c0.123,0.62,0.291,1.206,0.506,1.755
					c0.563,1.443,1.443,2.628,2.508,3.568c0.738,0.652,1.563,1.19,2.44,1.649c-0.285,0.669-0.514,1.339-0.688,2.011
					c-0.145,0.559-0.249,1.119-0.317,1.678c-1.061-1.511-2.32-3.078-3.813-4.607c-1.835-1.88-4.017-3.699-6.595-5.268
					c-1.687-1.027-3.545-1.945-5.58-2.704C171.675,239.868,172.872,239.551,174.001,239.104L174.001,239.104z M181.141,255.251
					L181.141,255.251c-0.485-0.729-1.047-1.342-1.667-1.837c-0.845-0.676-1.793-1.127-2.767-1.378
					c-0.632-0.163-1.274-0.243-1.913-0.252c-0.143-0.383-0.326-0.745-0.538-1.086c-0.632-1.01-1.516-1.844-2.489-2.509
					c-0.875-0.595-1.825-1.052-2.776-1.339c-0.027-0.748-0.143-1.455-0.349-2.116c-0.227-0.733-0.561-1.407-0.977-2.021
					c-0.27-0.397-0.573-0.768-0.901-1.119c3.009,0.813,5.633,1.989,7.923,3.383c3.563,2.169,6.32,4.864,8.419,7.514
					c0.756,0.956,1.425,1.904,2.016,2.819c-0.02-0.006-0.039-0.012-0.059-0.017c-0.751-0.194-1.529-0.265-2.333-0.231
					C182.215,255.084,181.686,255.151,181.141,255.251L181.141,255.251z M181.743,270.193L181.743,270.193
					c-0.913-0.698-1.602-1.651-1.983-2.725c-0.381-1.074-0.458-2.261-0.151-3.45c0.205-0.792,0.558-1.499,1.023-2.107
					c0.698-0.912,1.651-1.6,2.725-1.98c1.074-0.381,2.26-0.457,3.448-0.15c0.816,0.211,1.543,0.579,2.164,1.065
					c0.185,0.145,0.358,0.3,0.523,0.464c-0.104,0.091-0.195,0.173-0.275,0.246c-0.005,0.004-0.009,0.008-0.014,0.012
					c-0.002,0.002-0.004,0.004-0.006,0.006c-0.552,0.302-1.071,0.664-1.544,1.082c-1.22,1.077-2.147,2.523-2.583,4.212
					c-0.291,1.125-0.339,2.264-0.177,3.351c0.06,0.402,0.149,0.797,0.265,1.182c-0.432-0.013-0.869-0.07-1.307-0.184
					C183.06,271.012,182.352,270.658,181.743,270.193L181.743,270.193z M198.816,267.015L198.816,267.015
					c0.382,1.074,0.46,2.259,0.154,3.441c-0.204,0.789-0.557,1.495-1.023,2.104c-0.698,0.912-1.654,1.603-2.728,1.985
					c-1.075,0.383-2.26,0.46-3.442,0.155c-0.788-0.204-1.494-0.557-2.102-1.022c-0.911-0.699-1.601-1.655-1.982-2.73
					c-0.382-1.075-0.458-2.262-0.154-3.444c0.204-0.789,0.557-1.494,1.022-2.103c0.394-0.514,0.87-0.953,1.401-1.311
					c0.161-0.032,0.316-0.097,0.457-0.191c0.001-0.001,0.001-0.001,0.002-0.001c0.254-0.066,0.47-0.204,0.632-0.388
					c0.078-0.031,0.155-0.064,0.234-0.093c1.074-0.382,2.259-0.459,3.442-0.153c0.788,0.204,1.495,0.557,2.103,1.022
					C197.746,264.986,198.435,265.941,198.816,267.015L198.816,267.015z M217.447,257.289L217.447,257.289
					c-0.617,0.531-1.155,1.181-1.614,1.942c-0.613-0.134-1.256-0.209-1.915-0.221c-1.161-0.02-2.361,0.145-3.477,0.547
					c-0.557,0.202-1.093,0.466-1.586,0.805c-0.167,0.115-0.327,0.243-0.482,0.377c-0.565-0.302-1.167-0.544-1.801-0.708
					c-0.972-0.252-2.02-0.316-3.087-0.134c-0.781,0.133-1.569,0.398-2.345,0.801c-0.429-0.352-0.86-0.667-1.301-0.937
					c-0.688-0.42-1.404-0.735-2.156-0.93c-0.02-0.005-0.041-0.009-0.062-0.015c0.491-0.263,1.003-0.523,1.539-0.778
					c2.674-1.273,5.883-2.397,9.503-2.922c3.526-0.51,7.442-0.452,11.667,0.59C219.283,256.046,218.3,256.551,217.447,257.289z"/>
				<path style="fill-rule:evenodd;clip-rule:evenodd;fill:#26303A;" d="M168.505,240.094c0-0.056,0.003-0.112,0.008-0.169
					c0.077-0.877,0.708-1.569,1.574-1.728c1.09-0.198,2.172-0.478,3.204-0.887c0.685-0.271,1.412-0.147,1.969,0.333
					c1.799,1.552,3.996,2.793,6.45,2.458c1.012-0.138,1.953,0.534,2.151,1.536c0.53,2.678,2.08,4.396,4.457,5.639
					c0.894,0.468,1.276,1.537,0.88,2.465c-0.432,1.015-0.731,2.068-0.864,3.163c-0.097,0.809-0.653,1.439-1.441,1.639
					c0.276,0.625,0.203,1.335-0.214,1.905c-0.48,0.657-1.275,0.937-2.061,0.723c-1.032-0.28-2.09-0.213-3.132-0.023
					c-0.773,0.141-1.514-0.174-1.95-0.828c-1.115-1.673-2.76-2.579-4.77-2.607c-0.811-0.012-1.496-0.494-1.779-1.255
					c-0.667-1.792-2.786-3.227-4.553-3.761c-0.804-0.242-1.339-0.937-1.37-1.775c-0.059-1.604-0.619-2.843-1.709-4.01
					c-0.597-0.639-0.694-1.561-0.244-2.31c0.451-0.749,1.311-1.096,2.155-0.868C167.684,239.846,168.097,239.966,168.505,240.094z"
					/>
				<path style="fill-rule:evenodd;clip-rule:evenodd;fill:#26303A;" d="M219.527,253.549c0.422,0.087,0.844,0.182,1.266,0.286
					c0.849,0.209,1.434,0.93,1.465,1.804c0.031,0.873-0.502,1.634-1.334,1.902c-0.811,0.263-1.569,0.648-2.217,1.207
					c-0.488,0.422-0.891,0.927-1.223,1.478c-0.434,0.72-1.24,1.068-2.061,0.89c-1.818-0.396-4.331-0.171-5.793,1.086
					c-0.616,0.53-1.451,0.621-2.167,0.238c-1.772-0.948-3.65-0.955-5.436-0.029c-0.699,0.362-1.5,0.278-2.109-0.221
					c-0.828-0.679-1.709-1.24-2.759-1.5c-0.79-0.195-1.349-0.824-1.451-1.632c-0.088-0.702,0.193-1.359,0.74-1.771
					c-0.593-0.556-0.773-1.377-0.468-2.13c0.414-1.021,0.661-2.086,0.774-3.182c0.104-1.002,0.954-1.752,1.961-1.729
					c1.613,0.036,3.191-0.223,4.601-1.044c0.776-0.452,1.449-1.051,2.027-1.734c0.659-0.78,1.806-0.912,2.625-0.303
					c1.979,1.475,4.52,1.458,6.835,0.971c0.721-0.151,1.418,0.093,1.886,0.662c0.704,0.856,1.514,1.624,2.371,2.325
					c0.681,0.558,0.897,1.469,0.54,2.272C219.58,253.448,219.554,253.499,219.527,253.549z"/>
				<path style="fill-rule:evenodd;clip-rule:evenodd;fill:#26303A;" d="M191.419,261.372c2.271-0.548,4.714-0.049,6.587,1.385
					c1.204,0.923,2.12,2.184,2.627,3.612c0.881,2.477,0.445,5.274-1.154,7.363c-0.922,1.204-2.184,2.121-3.612,2.63
					c-2.478,0.883-5.276,0.447-7.364-1.153c-0.84-0.645-1.54-1.454-2.058-2.37c-0.364,0.333-0.827,0.503-1.343,0.488
					c-1.645-0.049-3.224-0.604-4.53-1.602c-1.206-0.921-2.121-2.181-2.629-3.61c-0.88-2.478-0.441-5.285,1.158-7.375
					c0.922-1.205,2.182-2.119,3.611-2.626c2.826-1.002,6.014-0.286,8.14,1.829c0.391,0.389,0.583,0.868,0.568,1.419
					C191.419,261.365,191.419,261.368,191.419,261.372z"/>
				<path style="fill-rule:evenodd;clip-rule:evenodd;fill:#6A9465;" d="M174.794,251.784c2.613,0.037,4.862,1.238,6.346,3.467
					c1.353-0.246,2.67-0.297,3.982,0.059c-4.203-6.509-10.312-11.543-18.359-13.716c1.397,1.494,2.151,3.17,2.227,5.256
					C171.337,247.559,173.906,249.398,174.794,251.784z"/>
				<path style="fill-rule:evenodd;clip-rule:evenodd;fill:#6A9465;" d="M170.434,240.095c6.719,2.505,12.044,6.964,15.987,12.579
					c0.153-1.27,0.494-2.492,1.004-3.688c-2.868-1.5-4.804-3.688-5.455-6.973c-3.021,0.411-5.711-0.962-7.968-2.909
					C172.872,239.551,171.675,239.868,170.434,240.095z"/>
				<path style="fill-rule:evenodd;clip-rule:evenodd;fill:#6A9465;" d="M204.29,250.867c-1.748,1.018-3.656,1.35-5.615,1.306
					c-0.133,1.292-0.426,2.523-0.905,3.707c6.016-2.93,12.851-4.345,20.071-3.267c-0.975-0.799-1.867-1.654-2.638-2.592
					c-2.922,0.614-5.936,0.513-8.384-1.311C206.054,249.616,205.205,250.334,204.29,250.867z"/>
				<path style="fill-rule:evenodd;clip-rule:evenodd;fill:#6A9465;" d="M220.331,255.707c-8.134-2.005-15.936-0.518-22.708,3.11
					c1.331,0.329,2.448,1.003,3.519,1.881c2.377-1.232,4.927-1.192,7.232,0.041c1.942-1.671,5.044-2.033,7.46-1.508
					c0.459-0.762,0.997-1.411,1.614-1.942C218.3,256.551,219.283,256.046,220.331,255.707z"/>
				<path style="fill-rule:evenodd;clip-rule:evenodd;fill:#BE594E;" d="M198.816,267.015c-0.382-1.073-1.071-2.028-1.982-2.727
					c-1.583-1.213-3.685-1.53-5.545-0.869c-0.079,0.028-0.157,0.062-0.234,0.093c-0.162,0.184-0.378,0.321-0.632,0.388
					c-0.001,0-0.001,0-0.002,0.001c-0.141,0.095-0.296,0.159-0.457,0.191c-0.531,0.357-1.008,0.797-1.401,1.311
					c-1.213,1.584-1.53,3.686-0.869,5.547c0.382,1.074,1.071,2.03,1.982,2.73c1.583,1.213,3.684,1.53,5.544,0.867
					c1.073-0.383,2.029-1.073,2.728-1.985C199.161,270.977,199.478,268.876,198.816,267.015L198.816,267.015z M190.11,270.353
					c0.4,0.705,1.307,1.541,1.114,2.396c-0.039,0.173-0.252,0.317-0.428,0.252c-0.895-0.333-1.19-1.815-1.501-2.635
					c-0.42-1.106-0.649-2.032-0.632-3.201l0.027-0.004C188.986,268.243,189.559,269.383,190.11,270.353z"/>
				<path style="fill-rule:evenodd;clip-rule:evenodd;fill:#BE594E;" d="M185.158,271.399c-0.946-3.155,0.026-6.565,2.494-8.744
					c0.474-0.418,0.993-0.78,1.544-1.082l0.295-0.264c-1.602-1.594-4.01-2.133-6.136-1.379c-1.073,0.381-2.027,1.068-2.725,1.98
					c-1.213,1.585-1.533,3.698-0.872,5.558c0.382,1.073,1.07,2.026,1.983,2.725C182.721,270.94,183.909,271.363,185.158,271.399
					L185.158,271.399z M182.175,267.606c0.4,0.705,1.307,1.542,1.115,2.396c-0.039,0.173-0.253,0.317-0.428,0.253
					c-0.895-0.334-1.189-1.815-1.501-2.635c-0.42-1.107-0.649-2.033-0.631-3.201l0.027-0.005
					C181.051,265.497,181.623,266.637,182.175,267.606z"/>
			</g>
			<path style="fill-rule:evenodd;clip-rule:evenodd;fill:#6A9465;" d="M279.032,432.309c-0.938,3.363-3.044,6.564-5.182,9.151
				c-1.485,1.799-3.183,3.502-5.174,4.742c1.471,0.2,2.968,0.362,4.488,0.485c0.409-0.243,0.792-0.526,1.13-0.871
				c0.475-0.483,0.898-1,1.253-1.579c0.309-0.505,0.532-1.063,1.04-1.392c0.305-0.198,0.635,0.07,0.664,0.381
				c0.069,0.727-0.467,1.496-0.851,2.081c-0.352,0.536-0.739,1.068-1.201,1.519c0.463,0.025,0.928,0.048,1.396,0.066
				c0.408-0.142,0.819-0.258,1.122-0.398c1.982-0.912,4.186-2.28,5.429-4.111c0.325-0.48,0.639-0.984,0.882-1.512
				c0.159-0.343,0.249-0.688,0.447-0.986c-1.016-0.841-1.945-1.789-2.773-2.86C280.644,435.657,279.752,434.093,279.032,432.309z"/>
			<path style="fill-rule:evenodd;clip-rule:evenodd;fill:#6A9465;" d="M285.362,440.575c-0.152,0.935-0.829,1.979-1.315,2.621
				c-1.273,1.678-2.796,2.868-4.69,3.758c0.171,0.001,0.342,0.003,0.514,0.003c1.633,0,3.291-0.049,4.975-0.147
				c0.012-0.008,0.025-0.015,0.037-0.022c1.103-0.708,1.829-1.522,2.209-2.791c0.104-0.35,0.565-0.25,0.602,0.082
				c0.112,1.028-0.406,1.902-1.098,2.613c3.237-0.254,6.567-0.699,9.986-1.356c-1.188-0.296-2.337-0.616-3.44-0.972
				C290.217,443.418,287.639,442.245,285.362,440.575z"/>
			<path style="fill-rule:evenodd;clip-rule:evenodd;fill:#6A9465;" d="M281.619,451.464c-0.53-0.322-0.912-0.84-1.409-1.199
				c-0.315-0.227-0.853-0.337-0.983-0.727c-0.767-0.006-1.527-0.021-2.282-0.047c0.66,0.66,1.18,1.572,1.528,2.28
				c0.377,0.765,0.8,1.701,0.996,2.63c1.852-1.178,3.808-2.276,5.848-3.311c1.442-0.731,2.928-1.431,4.444-2.105
				c-2.985,0.334-5.901,0.511-8.744,0.548c0.484,0.494,0.894,1.161,0.759,1.867C281.764,451.469,281.675,451.498,281.619,451.464z"
				/>
			<path style="fill-rule:evenodd;clip-rule:evenodd;fill:#6A9465;" d="M278.03,454.067c-0.198-0.659-0.437-1.307-0.757-1.918
				c-0.318-0.606-0.67-1.211-1.121-1.73c-0.281-0.322-0.581-0.628-0.794-0.997c-0.858-0.045-1.71-0.103-2.555-0.172
				c0.784,1.152,1.387,2.556,1.433,3.822c0.003,0.092-0.109,0.126-0.171,0.071c-0.66-0.59-1.059-1.307-1.574-2.016
				c-0.523-0.721-1.152-1.342-1.703-2.038c-0.009-0.011-0.014-0.021-0.021-0.032c-0.714-0.076-1.422-0.159-2.124-0.252
				c0.978,1.033,1.753,2.2,2.359,3.487c0.656,1.393,1.176,2.855,1.493,4.364c0.167,0.79,0.411,1.777,0.455,2.694
				c1.624-1.497,3.404-2.876,5.309-4.16C278.188,454.816,278.139,454.43,278.03,454.067L278.03,454.067z M276.171,454.585
				c-0.019-0.139-0.02-0.277-0.018-0.417c0.002-0.221,0.339-0.221,0.342,0c0.003,0.249,0.056,0.483,0.071,0.729
				c0.007,0.109-0.135,0.154-0.207,0.086C276.235,454.864,276.192,454.754,276.171,454.585z"/>
			<path style="fill-rule:evenodd;clip-rule:evenodd;fill:#6A9465;" d="M270.209,453.031c-0.54-1.203-1.19-2.4-2.086-3.38
				c-0.346-0.379-0.717-0.758-1.125-1.08c-1.219-0.186-2.422-0.395-3.607-0.628l-0.825-0.166c0.315,0.399,0.621,0.812,0.879,1.24
				c0.895,1.488,1.439,2.938,1.565,4.664c0.03,0.408-0.597,0.475-0.699,0.095c-0.44-1.629-1.163-3.491-2.282-4.782
				c-0.46-0.53-1.393-1.079-1.877-1.751c-0.887-0.21-1.764-0.433-2.63-0.667c0.918,1.31,1.42,3.158,1.664,4.373
				c0.305,1.522,0.496,3.067,0.61,4.614c0.038,0.521,0.102,1.08,0.135,1.641c3.745,0.039,7.679,0.945,11.768,2.526
				c-0.003-0.32,0.009-0.645-0.02-0.96C271.509,456.876,270.981,454.752,270.209,453.031L270.209,453.031z M269.62,456.634
				c-0.105-0.461-0.253-0.896-0.455-1.324c-0.335-0.712-0.698-1.396-0.876-2.166c-0.078-0.338,0.386-0.45,0.509-0.14
				c0.562,1.419,2.158,3.471,1.413,5.055c-0.092,0.197-0.39,0.131-0.442-0.058C269.643,457.546,269.726,457.096,269.62,456.634z"/>
			<path style="fill-rule:evenodd;clip-rule:evenodd;fill:#6A9465;" d="M268.241,444.698c4.416-3.027,7.988-8.756,9.993-13.597
				c-3.149,0.393-6.618,0.046-9.74-0.851c-0.948,3.314-2.987,6.469-5.322,8.924c-1.703,1.791-4.138,3.757-6.723,4.414
				c2.11,0.62,4.287,1.169,6.528,1.635c0.464-0.284,0.911-0.599,1.32-0.95c1.161-0.998,2.431-2.183,2.974-3.648
				c0.082-0.221,0.416-0.137,0.357,0.099c-0.439,1.746-1.403,3.309-2.73,4.523c-0.101,0.093-0.21,0.19-0.324,0.292
				c0.54,0.102,1.083,0.198,1.63,0.29C266.919,445.522,267.601,445.138,268.241,444.698L268.241,444.698z M271.169,439.233
				c-0.18,0.031-0.416-0.121-0.333-0.333c0.187-0.477,0.556-0.761,0.879-1.147c0.381-0.455,0.703-0.94,1.034-1.431
				c0.563-0.832,1.087-1.697,1.889-2.318c0.127-0.098,0.328,0.023,0.235,0.182c-0.581,0.992-1.129,2.012-1.732,2.991
				C272.692,437.904,272.092,439.075,271.169,439.233z"/>
			<path style="fill-rule:evenodd;clip-rule:evenodd;fill:#6A9465;" d="M260.977,435.711c0.832-0.616,1.611-1.361,2.249-2.178
				c0.098-0.124,0.255,0.034,0.202,0.155c-0.805,1.837-2.567,4.175-4.73,4.353c-0.263,0.022-0.358-0.318-0.201-0.486
				C259.208,436.788,260.143,436.328,260.977,435.711L260.977,435.711z M262.406,438.046c2.209-2.266,4.191-5.029,5-8.135
				c-2.294-0.775-4.457-1.882-6.241-3.369c-0.705-0.589-1.349-1.241-1.914-1.952c-0.153,0.412-0.388,0.814-0.55,1.143
				c-0.449,0.912-0.95,1.801-1.513,2.648c-1.184,1.783-2.545,3.463-4.085,4.952c-2.645,2.56-5.781,4.843-9.453,5.366
				c1.686,0.799,3.433,1.563,5.237,2.279c0.324-0.158,0.701-0.244,1.055-0.386c1.423-0.568,3.346-1.69,4.491-2.704
				c0.549-0.485,1.107-0.802,1.692-1.223c0.242-0.174,0.498,0.153,0.38,0.38c-0.198,0.379-0.293,0.809-0.592,1.128
				c-0.32,0.342-0.665,0.66-1.028,0.955c-1.531,1.241-2.485,1.767-4.281,2.513c1.152,0.431,2.328,0.841,3.525,1.23
				C257.377,442.131,260.051,440.46,262.406,438.046z"/>
			<path style="fill-rule:evenodd;clip-rule:evenodd;fill:#6A9465;" d="M243.14,438.453c3.576-1.042,6.909-3.397,9.47-6.008
				c1.438-1.465,2.749-3.061,3.84-4.802c0.493-0.787,0.961-1.593,1.358-2.433c0.167-0.352,0.306-0.853,0.523-1.268
				c-3.573,1.499-7.427,2.006-11.261,1.169c0.377,0.919-0.746,2.664-1.197,3.363c-0.804,1.242-1.771,2.385-2.887,3.356
				c-1.672,1.456-3.868,3.051-6.18,3.263c0.946,0.55,1.915,1.091,2.909,1.621c0.939-0.349,1.991-0.262,2.927-0.751
				c0.535-0.28,1.01-0.616,1.513-0.944c0.441-0.288,0.947-0.515,1.344-0.857c0.218-0.189,0.623,0.069,0.425,0.327
				c-0.438,0.571-0.709,1.176-1.285,1.643c-0.577,0.468-1.179,0.93-1.867,1.225c-0.319,0.138-0.684,0.285-1.061,0.394
				C242.183,437.987,242.659,438.222,243.14,438.453L243.14,438.453z M249.959,429.434c-0.288,0.465-0.789,1.21-1.437,0.974
				c-0.143-0.053-0.225-0.156-0.235-0.309c-0.037-0.515,0.521-0.96,0.832-1.313c0.359-0.408,0.635-0.866,0.878-1.352
				c0.098-0.195,0.423-0.103,0.412,0.111C250.377,428.157,250.289,428.901,249.959,429.434z"/>
			<path style="fill-rule:evenodd;clip-rule:evenodd;fill:#6A9465;" d="M235.895,434.56c2.444-0.384,4.744-2.025,6.447-3.72
				c0.966-0.962,1.888-1.997,2.58-3.178c0.318-0.544,0.619-1.106,0.803-1.711c0.13-0.429,0.134-0.768,0.432-1.066
				c-2.26-0.622-4.369-1.68-6.353-3.152c-0.292,0.86-1.078,1.811-1.469,2.311c-0.941,1.205-2.051,2.266-3.274,3.185
				c-1.674,1.259-3.836,2.586-6.033,2.842c1.008,0.721,2.056,1.44,3.141,2.155c0.879-0.198,1.777-0.195,2.586-0.666
				c0.739-0.43,1.391-0.907,2.23-1.122c0.249-0.064,0.417,0.192,0.313,0.408c-0.475,0.984-1.917,2.22-3.281,2.566
				C234.632,433.798,235.259,434.181,235.895,434.56L235.895,434.56z M239.748,425.63c-0.278,0.493-0.613,0.906-1.058,1.257
				c-0.369,0.29-0.725,0.681-1.23,0.596c-0.129-0.021-0.238-0.174-0.23-0.302c0.035-0.521,0.532-0.733,0.912-1.004
				c0.394-0.279,0.82-0.54,1.135-0.91C239.505,425.002,239.91,425.342,239.748,425.63z"/>
			<path style="fill-rule:evenodd;clip-rule:evenodd;fill:#6A9465;" d="M227.742,429.136c2.47-0.369,4.802-1.513,6.746-3.065
				c1.092-0.873,2.151-1.852,2.973-2.99c0.45-0.624,0.769-1.114,1.064-1.816c-3.691,2.33-7.436,3.896-11.695,3.895
				c-1.594,0-3.213-0.221-4.887-0.644C223.688,426.015,225.624,427.571,227.742,429.136z"/>
			<path style="fill-rule:evenodd;clip-rule:evenodd;fill:#6A9465;" d="M227.975,444.151c1.056-3.129,0.761-6.983-0.189-10.107
				c-0.235-0.773-0.505-1.548-0.839-2.285l-0.001-0.001c-1.182-0.857-2.31-1.714-3.384-2.563c2.605,5.362,3.563,11.153,3.063,17.322
				C227.178,445.956,227.729,444.882,227.975,444.151z"/>
			<path style="fill-rule:evenodd;clip-rule:evenodd;fill:#6A9465;" d="M230.104,439.612c0.05,1.927-0.199,3.89-0.96,5.672
				c-0.303,0.711-0.684,1.39-1.167,1.993c2.857,0.316,5.575,0.925,8.154,1.969c0.065-0.065,0.125-0.136,0.172-0.218
				c0.819-1.412,0.73-3.73,0.656-5.296c-0.063-1.316-0.157-2.672-0.47-3.953c-0.211-0.861-0.517-1.64-0.879-2.391
				c-0.665-0.385-1.317-0.773-1.958-1.165c0.498,1.743,0.491,2.787,0.382,4.572c-0.052,0.849-0.053,1.736-0.359,2.538
				c-0.131,0.341-0.672,0.416-0.769,0c-0.195-0.836-0.084-1.688-0.089-2.538c-0.009-1.456-0.262-3.245-0.743-4.619
				c-0.142-0.404-0.325-0.796-0.413-1.199c-1.001-0.643-1.971-1.293-2.912-1.944C229.566,435.19,230.043,437.296,230.104,439.612z"
				/>
			<path style="fill-rule:evenodd;clip-rule:evenodd;fill:#6A9465;" d="M238.545,444.307c0.085,1.88,0.098,3.927-0.932,5.596
				c2.556,1.239,4.907,2.951,6.955,5.238c1.353,1.509,2.571,3.269,3.644,5.294c0.081-0.242,0.155-0.487,0.192-0.739
				c0.367-2.517-0.496-5.879-1.324-8.214c-0.734-2.071-1.557-4.122-2.414-6.146c-0.637-1.504-1.414-2.934-2.218-4.35
				c-0.49-0.233-0.975-0.468-1.455-0.706c0.294,0.572,0.59,1.153,0.787,1.764c0.46,1.427,0.35,3.147-0.253,4.521
				c-0.036,0.082-0.181,0.063-0.195-0.025c-0.265-1.629-0.188-3.256-0.981-4.757c-0.419-0.791-1.056-1.605-1.276-2.482
				c-0.605-0.317-1.205-0.639-1.793-0.964C238.007,440.203,238.456,442.325,238.545,444.307L238.545,444.307z M246.3,454.11
				c-0.12-0.54-0.218-1.08-0.329-1.621c-0.019-0.092,0.108-0.155,0.156-0.066c0.277,0.504,0.504,0.999,0.677,1.548
				c0.158,0.5,0.384,1.059,0.279,1.584c-0.035,0.174-0.253,0.16-0.339,0.044C246.443,455.19,246.408,454.599,246.3,454.11z"/>
			<path style="fill-rule:evenodd;clip-rule:evenodd;fill:#6A9465;" d="M246.048,445.217c0.881,2.07,1.753,4.177,2.465,6.311
				c0.643,1.927,1.167,3.939,1.298,5.974c0.034,0.533,0.081,1.353,0.012,2.167c1.039-0.576,2.111-1.05,3.213-1.42
				c1.722-0.579,3.514-0.904,5.357-1.008c0.004-0.504,0.019-1.008-0.001-1.489c-0.058-1.354-0.151-2.714-0.365-4.054
				c-0.306-1.909-0.597-4.227-2.073-5.562c-1.349-0.392-2.672-0.811-3.969-1.255c0.318,0.51,0.607,1.029,0.828,1.545
				c0.6,1.396,0.896,3.435,0.791,4.946c-0.04,0.575-0.782,0.662-0.98,0.133c-0.588-1.581-0.251-3.414-1.181-4.916
				c-0.581-0.941-1.534-1.687-2.081-2.654c-1.738-0.657-3.423-1.358-5.059-2.091C244.991,442.904,245.554,444.056,246.048,445.217
				L246.048,445.217z M256.846,453.69c-0.008-0.036,0.044-0.051,0.055-0.016c0.151,0.499,0.236,1.016,0.355,1.522
				c0.098,0.411,0.232,0.866,0.015,1.25c-0.065,0.115-0.242,0.115-0.308,0c-0.193-0.34-0.103-0.706-0.045-1.079
				C257.013,454.775,256.981,454.274,256.846,453.69z"/>
			<g>
				<g>
					<path style="fill-rule:evenodd;clip-rule:evenodd;fill:#26303A;" d="M444.885,256.208c-0.965-2.273-2.572-4.206-4.594-5.573
						c-2.021-1.367-4.462-2.169-7.075-2.169c-1.743,0-3.411,0.356-4.927,0.999c-2.273,0.964-4.207,2.57-5.576,4.592
						c-1.368,2.02-2.17,4.462-2.17,7.077c0,1.742,0.356,3.409,1,4.925c0.965,2.273,2.572,4.206,4.594,5.574
						c2.021,1.367,4.464,2.17,7.079,2.17c1.742,0,3.409-0.356,4.924-1c2.273-0.965,4.206-2.572,5.574-4.593
						c1.368-2.02,2.17-4.462,2.17-7.076C445.884,259.391,445.528,257.724,444.885,256.208L444.885,256.208z M442.712,265.137
						L442.712,265.137c-0.783,1.847-2.096,3.427-3.743,4.541c-1.648,1.114-3.623,1.765-5.753,1.765
						c-1.422,0-2.772-0.289-4.005-0.812c-1.849-0.784-3.429-2.097-4.543-3.744c-1.115-1.647-1.765-3.623-1.766-5.753
						c0.001-1.421,0.29-2.771,0.813-4.004c0.783-1.848,2.096-3.427,3.744-4.54c1.648-1.114,3.625-1.764,5.757-1.764
						c1.421,0,2.771,0.289,4.003,0.811c1.847,0.783,3.427,2.096,4.541,3.742c1.114,1.647,1.764,3.624,1.765,5.755
						C443.523,262.555,443.234,263.904,442.712,265.137z"/>
					<path style="fill-rule:evenodd;clip-rule:evenodd;fill:#26303A;" d="M437.733,267.728c-0.396-0.083-0.708,0.156-1.036,0.354
						c-0.4,0.242-0.826,0.411-1.275,0.536c-0.829,0.23-1.828,0.151-2.671-0.005c-1.808-0.335-3.429-1.42-4.688-2.722
						c-1.298-1.34-2.239-3.043-2.602-4.876c-0.161-0.814-0.159-1.703-0.001-2.517c0.171-0.882,0.714-1.619,0.869-2.501
						c0.012-0.067-0.044-0.145-0.12-0.119c-1.793,0.593-2.129,3.401-1.943,4.976c0.256,2.18,1.35,4.178,2.785,5.805
						c1.427,1.616,3.357,2.894,5.5,3.272c1.059,0.188,1.977,0.053,2.99-0.267c0.706-0.222,2.352-0.814,2.368-1.704
						C437.912,267.857,437.836,267.749,437.733,267.728z"/>
					<path style="fill-rule:evenodd;clip-rule:evenodd;fill:#26303A;" d="M441.09,258.782c0.148,0.998,0.109,2.266-0.093,3.252
						c-0.107,0.522-0.297,1.018-0.549,1.485c-0.251,0.47-0.61,0.778-0.636,1.331c-0.01,0.211,0.197,0.318,0.378,0.288
						c1.091-0.179,1.597-1.912,1.736-2.848c0.091-0.609,0.07-1.219,0-1.828c-0.078-0.67-0.352-1.14-0.573-1.754
						C441.292,258.541,441.064,258.609,441.09,258.782z"/>
				</g>
				<path style="fill-rule:evenodd;clip-rule:evenodd;fill:#26303A;" d="M421.143,261.135c0-1.615,0.32-3.206,0.951-4.692
					c0.913-2.152,2.443-4.003,4.379-5.312c1.998-1.351,4.331-2.066,6.743-2.066c1.614,0,3.203,0.321,4.69,0.951
					c2.152,0.912,4.003,2.441,5.313,4.376c1.351,1.998,2.066,4.329,2.066,6.741c0,1.614-0.321,3.204-0.951,4.69
					c-0.913,2.152-2.442,4.003-4.378,5.312c-1.997,1.352-4.328,2.067-6.739,2.067c-1.615,0-3.206-0.321-4.692-0.952
					c-2.153-0.912-4.005-2.441-5.313-4.377C421.858,265.877,421.143,263.546,421.143,261.135z"/>
				<path style="fill-rule:evenodd;clip-rule:evenodd;fill:#CDAA73;" d="M425.461,258.497c-0.158,0.814-0.16,1.703,0.001,2.517
					c0.362,1.833,1.304,3.536,2.602,4.876c1.259,1.302,2.88,2.387,4.688,2.722c0.843,0.156,1.842,0.235,2.671,0.005
					c0.449-0.124,0.875-0.294,1.275-0.536c0.328-0.197,0.641-0.437,1.036-0.354c0.102,0.021,0.178,0.13,0.177,0.232
					c-0.017,0.89-1.662,1.482-2.368,1.704c-1.014,0.319-1.932,0.454-2.99,0.267c-2.143-0.379-4.073-1.656-5.5-3.272
					c-1.436-1.627-2.529-3.625-2.785-5.805c-0.186-1.574,0.15-4.383,1.943-4.976c0.076-0.025,0.132,0.052,0.12,0.119
					C426.175,256.878,425.631,257.615,425.461,258.497L425.461,258.497z M422.902,261.134c0.001,2.13,0.65,4.105,1.766,5.753
					c1.114,1.648,2.694,2.96,4.543,3.744c1.233,0.522,2.583,0.812,4.005,0.812c2.13,0,4.104-0.65,5.753-1.765
					c1.647-1.114,2.96-2.694,3.743-4.541c0.522-1.232,0.811-2.582,0.813-4.003c-0.001-2.131-0.65-4.106-1.765-5.755
					c-1.114-1.646-2.694-2.959-4.541-3.742c-1.232-0.521-2.582-0.811-4.003-0.811c-2.132,0-4.108,0.649-5.757,1.764
					c-1.649,1.113-2.961,2.692-3.744,4.54C423.192,258.362,422.903,259.713,422.902,261.134L422.902,261.134z M440.997,262.034
					c0.202-0.986,0.241-2.254,0.093-3.252c-0.025-0.173,0.202-0.241,0.264-0.073c0.222,0.614,0.495,1.084,0.573,1.754
					c0.07,0.609,0.091,1.219,0,1.828c-0.14,0.936-0.646,2.669-1.736,2.848c-0.181,0.03-0.388-0.077-0.378-0.288
					c0.025-0.553,0.385-0.861,0.636-1.331C440.7,263.052,440.891,262.557,440.997,262.034z"/>
				<path style="fill-rule:evenodd;clip-rule:evenodd;fill:#BB976B;" d="M432.552,269.93c-2.143-0.379-4.073-1.656-5.5-3.272
					c-1.436-1.627-2.529-3.625-2.785-5.805c-0.152-1.294,0.048-3.421,1.118-4.468c0.101-0.92,0.322-1.804,0.649-2.637
					c-0.983,0.956-1.777,2.104-2.319,3.382c-0.522,1.232-0.811,2.583-0.813,4.004c0.001,2.13,0.65,4.105,1.766,5.753
					c1.114,1.648,2.694,2.96,4.543,3.744c1.233,0.522,2.583,0.812,4.005,0.812c2.13,0,4.104-0.65,5.753-1.765
					c1.647-1.114,2.96-2.694,3.743-4.541c0.035-0.083,0.069-0.167,0.103-0.251c-0.438,0.427-0.915,0.814-1.424,1.159
					c-1.647,1.114-3.623,1.764-5.753,1.764c-1.421,0-2.772-0.289-4.005-0.811c-1.848-0.783-3.429-2.096-4.543-3.743
					c-0.883-1.305-1.474-2.814-1.682-4.444c-0.104,0.726-0.087,1.494,0.054,2.205c0.362,1.833,1.304,3.536,2.602,4.876
					c1.259,1.302,2.88,2.387,4.688,2.722c0.843,0.156,1.842,0.235,2.671,0.005c0.449-0.124,0.875-0.294,1.275-0.536
					c0.328-0.197,0.641-0.437,1.036-0.354c0.102,0.021,0.178,0.13,0.177,0.232c-0.017,0.89-1.662,1.482-2.368,1.704
					C434.528,269.982,433.61,270.117,432.552,269.93z"/>
			</g>
			<g>
				<g>
					<path style="fill-rule:evenodd;clip-rule:evenodd;fill:#26303A;" d="M70.76,270.678c-0.964-2.273-2.571-4.206-4.592-5.574
						c-2.021-1.367-4.462-2.168-7.078-2.168c-1.743,0-3.411,0.355-4.926,0.999c-2.274,0.964-4.206,2.57-5.574,4.592
						c-1.368,2.02-2.169,4.462-2.168,7.077c0,1.743,0.355,3.411,0.998,4.926c0.964,2.273,2.571,4.206,4.592,5.574
						c2.021,1.367,4.462,2.169,7.078,2.168c1.743,0,3.411-0.356,4.926-0.998c2.273-0.965,4.206-2.571,5.574-4.593
						c1.367-2.02,2.169-4.462,2.169-7.077C71.758,273.86,71.403,272.193,70.76,270.678L70.76,270.678z M68.587,279.608
						L68.587,279.608c-0.783,1.847-2.095,3.427-3.742,4.54c-1.648,1.114-3.624,1.763-5.755,1.764
						c-1.422-0.001-2.772-0.289-4.004-0.812c-1.848-0.783-3.427-2.095-4.541-3.741c-1.114-1.648-1.763-3.624-1.763-5.756
						c0-1.422,0.289-2.772,0.811-4.004c0.783-1.848,2.095-3.427,3.742-4.541c1.648-1.113,3.624-1.763,5.755-1.763
						c1.422,0,2.772,0.288,4.004,0.811c1.848,0.783,3.427,2.095,4.54,3.742c1.114,1.647,1.763,3.623,1.764,5.755
						C69.398,277.025,69.109,278.376,68.587,279.608z"/>
					<path style="fill-rule:evenodd;clip-rule:evenodd;fill:#26303A;" d="M63.825,267.472c-0.761-0.522-1.62-0.909-2.521-1.105
						c-0.412-0.089-0.777-0.147-1.2-0.119c-0.577,0.038-1.136,0.333-1.748,0.357c-0.135,0.005-0.133,0.198,0,0.208
						c0.891,0.065,1.727,0.1,2.566,0.46c0.693,0.299,1.397,0.754,2.029,1.168c1.327,0.869,2.449,2.14,3.202,3.531
						c0.822,1.52,1.038,3.02,0.756,4.708c-0.108,0.647-0.291,1.271-0.516,1.885c-0.226,0.618-0.617,1.086-0.641,1.756
						c-0.005,0.158,0.143,0.316,0.306,0.306c1.514-0.099,2.01-2.363,2.238-3.564c0.382-2.012,0.112-3.758-0.778-5.601
						C66.712,269.794,65.334,268.507,63.825,267.472z"/>
					<path style="fill-rule:evenodd;clip-rule:evenodd;fill:#26303A;" d="M50.954,277.868c-0.275-0.521-0.446-1.08-0.663-1.625
						c-0.217-0.545-0.071-1.195-0.203-1.759c-0.035-0.15-0.276-0.195-0.345-0.045c-0.461,1.017-0.099,2.537,0.208,3.561
						c0.264,0.884,0.85,2.597,1.912,2.699c0.134,0.013,0.308-0.111,0.326-0.248c0.057-0.413-0.044-0.64-0.294-0.984
						C51.532,278.967,51.242,278.413,50.954,277.868z"/>
				</g>
				<path style="fill-rule:evenodd;clip-rule:evenodd;fill:#26303A;" d="M70.208,280.295c-0.912,2.152-2.441,4.003-4.377,5.312
					c-1.997,1.351-4.329,2.065-6.741,2.066c-1.615,0-3.205-0.321-4.692-0.951c-2.152-0.913-4.003-2.441-5.312-4.377
					c-1.351-1.997-2.065-4.329-2.065-6.741c0-1.614,0.321-3.205,0.951-4.691c0.912-2.152,2.441-4.003,4.376-5.312
					c1.998-1.351,4.329-2.065,6.741-2.065c1.614,0,3.205,0.32,4.691,0.95c2.153,0.913,4.004,2.441,5.312,4.377
					c1.351,1.998,2.065,4.329,2.066,6.741C71.159,277.218,70.838,278.809,70.208,280.295z"/>
				<path style="fill-rule:evenodd;clip-rule:evenodd;fill:#CDAA73;" d="M66.393,278.565c0.225-0.614,0.408-1.237,0.516-1.885
					c0.282-1.688,0.066-3.188-0.756-4.708c-0.752-1.392-1.875-2.662-3.202-3.531c-0.632-0.414-1.336-0.869-2.029-1.168
					c-0.839-0.36-1.675-0.395-2.566-0.46c-0.133-0.01-0.135-0.203,0-0.208c0.612-0.023,1.171-0.318,1.748-0.357
					c0.422-0.028,0.788,0.03,1.199,0.119c0.901,0.195,1.76,0.583,2.521,1.105c1.509,1.035,2.887,2.322,3.692,3.99
					c0.891,1.843,1.16,3.589,0.778,5.601c-0.228,1.2-0.724,3.465-2.238,3.564c-0.162,0.011-0.311-0.148-0.306-0.306
					C65.775,279.65,66.166,279.183,66.393,278.565L66.393,278.565z M68.587,279.608c0.522-1.232,0.811-2.583,0.811-4.005
					c0-2.132-0.65-4.107-1.764-5.755c-1.113-1.647-2.692-2.959-4.54-3.742c-1.232-0.522-2.583-0.811-4.004-0.811
					c-2.132,0-4.108,0.649-5.755,1.763c-1.647,1.114-2.958,2.693-3.742,4.54c-0.522,1.232-0.811,2.583-0.812,4.005
					c0,2.132,0.65,4.107,1.764,5.756c1.114,1.646,2.693,2.958,4.541,3.741c1.232,0.522,2.583,0.811,4.004,0.812
					c2.132-0.001,4.107-0.649,5.755-1.764C66.492,283.035,67.804,281.456,68.587,279.608L68.587,279.608z M49.743,274.44
					c0.068-0.15,0.31-0.105,0.345,0.045c0.131,0.564-0.015,1.214,0.203,1.759c0.217,0.545,0.388,1.104,0.663,1.625
					c0.288,0.545,0.579,1.099,0.941,1.6c0.25,0.345,0.351,0.571,0.294,0.984c-0.019,0.137-0.192,0.261-0.326,0.248
					c-1.062-0.103-1.647-1.815-1.912-2.699C49.644,276.977,49.282,275.456,49.743,274.44z"/>
				<path style="fill-rule:evenodd;clip-rule:evenodd;fill:#BB976B;" d="M58.345,281.067c-1.421,0-2.772-0.289-4.004-0.812
					c-1.247-0.528-2.371-1.297-3.313-2.248c0.264,0.5,0.536,1.002,0.867,1.46c0.25,0.345,0.351,0.571,0.294,0.984
					c-0.019,0.137-0.192,0.261-0.326,0.248c-1.062-0.103-1.647-1.815-1.912-2.699c-0.161-0.537-0.337-1.21-0.401-1.876
					c-0.278-0.453-0.522-0.93-0.728-1.425c-0.026,0.298-0.039,0.599-0.04,0.903c0,2.132,0.65,4.107,1.764,5.756
					c1.114,1.646,2.693,2.958,4.541,3.741c1.232,0.522,2.583,0.811,4.004,0.812c2.132-0.001,4.107-0.649,5.755-1.764
					c1.647-1.113,2.959-2.692,3.742-4.54c0.522-1.232,0.811-2.583,0.811-4.005c0-1.396-0.279-2.726-0.785-3.941
					c-0.057,0.652-0.175,1.287-0.348,1.898c0.252,1.123,0.265,2.262,0.029,3.502c-0.228,1.2-0.724,3.465-2.238,3.564
					c-0.162,0.011-0.311-0.148-0.306-0.306c0.024-0.67,0.415-1.138,0.641-1.756c0.225-0.614,0.408-1.237,0.516-1.885
					c0.014-0.084,0.027-0.168,0.039-0.251c-0.751,1.134-1.721,2.113-2.847,2.875C62.453,280.418,60.477,281.067,58.345,281.067z"/>
			</g>
			<g>
				<g>
					<path style="fill-rule:evenodd;clip-rule:evenodd;fill:#26303A;" d="M58.835,434.071c-0.965-2.273-2.571-4.206-4.592-5.573
						c-2.02-1.368-4.462-2.169-7.078-2.169c-1.743,0-3.411,0.355-4.926,0.998c-2.273,0.965-4.206,2.571-5.574,4.593
						c-1.367,2.02-2.169,4.462-2.168,7.077c0,1.743,0.355,3.411,0.999,4.926c0.964,2.273,2.571,4.206,4.592,5.574
						c2.021,1.367,4.462,2.169,7.078,2.168c1.743,0.001,3.411-0.355,4.926-0.998c2.274-0.965,4.207-2.571,5.574-4.593
						c1.368-2.02,2.169-4.462,2.169-7.077C59.834,437.254,59.478,435.587,58.835,434.071L58.835,434.071z M56.663,443.002
						L56.663,443.002c-0.783,1.848-2.095,3.426-3.742,4.54c-1.648,1.113-3.623,1.763-5.755,1.764c-1.422,0-2.772-0.289-4.004-0.812
						c-1.848-0.783-3.426-2.095-4.54-3.742c-1.114-1.648-1.763-3.623-1.763-5.755c0-1.422,0.289-2.772,0.812-4.005
						c0.783-1.848,2.094-3.426,3.741-4.54c1.648-1.113,3.624-1.763,5.755-1.763c1.422,0,2.772,0.288,4.004,0.81
						c1.848,0.783,3.427,2.095,4.541,3.742c0.387,0.572,0.717,1.186,0.984,1.831c-0.5-0.453-1.043-0.857-1.616-1.205
						c-1.62-0.982-3.519-1.383-5.399-1.308c-1.667,0.067-3.353,0.657-4.922,1.179c-2.334,0.777-5.767,2.3-6.493,4.935
						c-0.117,0.422,0.479,0.67,0.701,0.296c0.92-1.555,2.112-2.539,3.729-3.348c1.625-0.813,3.398-1.318,5.201-1.508
						c3.817-0.401,7.479,0.846,9.376,4.367c0.063,0.116,0.128,0.265,0.201,0.42c0,0.032,0.002,0.063,0.002,0.096
						C57.474,440.419,57.185,441.77,56.663,443.002z"/>
					<path style="fill-rule:evenodd;clip-rule:evenodd;fill:#26303A;" d="M55.694,439.911c-0.985,1.545-1.275,3.418-2.375,4.934
						c-1.219,1.682-3.211,2.133-5.074,2.753c-0.194,0.065-0.149,0.327,0.046,0.346c2.111,0.191,4.124-0.699,5.473-2.328
						c1.212-1.464,2.161-3.729,2.245-5.618C56.017,439.821,55.78,439.776,55.694,439.911z"/>
					<path style="fill-rule:evenodd;clip-rule:evenodd;fill:#26303A;" d="M44.801,446.575c-0.136-0.014-0.259-0.015-0.394,0.012
						c-0.141,0.027-0.239,0.123-0.372,0.154c-0.137,0.032-0.137,0.243,0,0.276c0.105,0.024,0.192,0.106,0.298,0.139
						c0.131,0.04,0.253,0.056,0.389,0.067c0.255,0.021,0.43,0.062,0.661-0.082c0.08-0.05,0.114-0.157,0.063-0.24
						C45.289,446.645,45.084,446.603,44.801,446.575z"/>
				</g>
				<path style="fill-rule:evenodd;clip-rule:evenodd;fill:#26303A;" d="M57.958,436.3c0.314,0.415,0.603,0.863,0.863,1.347
					c0.09,0.167,0.167,0.34,0.247,0.512c0.111,0.238,0.162,0.463,0.164,0.724c0.001,0.038,0.002,0.077,0.002,0.115
					c0,1.615-0.321,3.205-0.951,4.691c-0.913,2.153-2.441,4.003-4.377,5.311c-1.998,1.352-4.329,2.065-6.741,2.065
					c-1.615,0-3.205-0.32-4.691-0.95c-2.153-0.912-4.003-2.441-5.312-4.377c-1.351-1.997-2.065-4.329-2.065-6.741
					c0-1.614,0.321-3.205,0.951-4.691c0.912-2.152,2.441-4.003,4.376-5.312c1.998-1.351,4.33-2.065,6.741-2.065
					c1.615,0,3.205,0.32,4.691,0.95c2.153,0.913,4.003,2.441,5.312,4.377c0.455,0.673,0.841,1.393,1.152,2.144
					C58.597,435.065,58.446,435.803,57.958,436.3z"/>
				<path style="fill-rule:evenodd;clip-rule:evenodd;fill:#BE594E;" d="M57.271,438.481c-1.896-3.521-5.559-4.769-9.376-4.367
					c-1.803,0.189-3.576,0.695-5.201,1.508c-1.616,0.809-2.809,1.793-3.729,3.348c-0.222,0.374-0.818,0.126-0.701-0.296
					c0.726-2.635,4.159-4.157,6.493-4.934c1.569-0.522,3.255-1.112,4.922-1.18c1.879-0.075,3.779,0.325,5.399,1.308
					c0.573,0.348,1.117,0.752,1.616,1.205c-0.267-0.646-0.597-1.259-0.984-1.831c-1.114-1.647-2.693-2.959-4.541-3.742
					c-1.232-0.522-2.583-0.81-4.004-0.81c-2.132,0-4.107,0.649-5.755,1.763c-1.647,1.114-2.958,2.692-3.742,4.54
					c-0.522,1.232-0.811,2.583-0.811,4.005c0,2.132,0.649,4.107,1.763,5.755c1.114,1.647,2.693,2.959,4.54,3.742
					c1.232,0.522,2.583,0.812,4.004,0.812c2.132-0.001,4.107-0.65,5.755-1.764c1.647-1.114,2.958-2.692,3.742-4.54
					c0.522-1.233,0.811-2.583,0.811-4.005c0-0.032-0.002-0.064-0.002-0.096C57.399,438.746,57.334,438.599,57.271,438.481
					L57.271,438.481z M53.319,444.845c1.099-1.516,1.389-3.389,2.375-4.934c0.086-0.135,0.323-0.09,0.315,0.086
					c-0.084,1.889-1.033,4.154-2.245,5.618c-1.349,1.629-3.361,2.52-5.473,2.328c-0.196-0.019-0.241-0.28-0.046-0.346
					C50.108,446.978,52.101,446.526,53.319,444.845L53.319,444.845z M44.407,446.587c0.134-0.026,0.258-0.025,0.394-0.012
					c0.283,0.028,0.488,0.069,0.646,0.326c0.051,0.083,0.017,0.19-0.063,0.24c-0.231,0.144-0.405,0.103-0.661,0.082
					c-0.136-0.012-0.258-0.027-0.389-0.067c-0.106-0.032-0.193-0.114-0.298-0.139c-0.137-0.033-0.137-0.244,0-0.276
					C44.168,446.71,44.266,446.614,44.407,446.587z"/>
				<path style="fill-rule:evenodd;clip-rule:evenodd;fill:#8B423F;" d="M46.048,445.579c-1.422,0-2.773-0.289-4.005-0.811
					c-1.847-0.783-3.426-2.095-4.54-3.741c-0.216-0.319-0.414-0.651-0.594-0.994c0.174,1.736,0.78,3.343,1.711,4.72
					c1.114,1.647,2.693,2.959,4.54,3.742c1.232,0.522,2.583,0.812,4.004,0.812c2.132-0.001,4.107-0.65,5.755-1.764
					c1.647-1.114,2.958-2.692,3.742-4.54c0.522-1.233,0.811-2.583,0.811-4.005c0-0.032-0.002-0.064-0.002-0.096
					c-0.073-0.155-0.138-0.303-0.201-0.42c-0.307-0.569-0.66-1.08-1.052-1.533c-0.133,0.812-0.362,1.591-0.675,2.327
					c-0.783,1.848-2.095,3.427-3.741,4.54C50.155,444.93,48.18,445.579,46.048,445.579L46.048,445.579z M55.694,439.911
					c0.086-0.135,0.323-0.09,0.315,0.086c-0.084,1.889-1.033,4.154-2.245,5.618c-1.349,1.629-3.361,2.52-5.473,2.328
					c-0.196-0.019-0.241-0.28-0.046-0.346c1.863-0.62,3.856-1.071,5.074-2.753C54.418,443.329,54.708,441.456,55.694,439.911
					L55.694,439.911z M44.407,446.587c0.134-0.026,0.258-0.025,0.394-0.012c0.283,0.028,0.488,0.069,0.646,0.326
					c0.051,0.083,0.017,0.19-0.063,0.24c-0.231,0.144-0.405,0.103-0.661,0.082c-0.136-0.012-0.258-0.027-0.389-0.067
					c-0.106-0.032-0.193-0.114-0.298-0.139c-0.137-0.033-0.137-0.244,0-0.276C44.168,446.71,44.266,446.614,44.407,446.587z"/>
			</g>
		</g>
	</g>
</g>
</svg>
